<?xml version="1.0" encoding="UTF-8"?> <!-- Generator: Adobe Illustrator 26.2.1, SVG Export Plug-In . SVG Version: 6.00 Build 0) --> <svg xmlns="http://www.w3.org/2000/svg" xmlns:xlink="http://www.w3.org/1999/xlink" id="Layer_1" x="0px" y="0px" viewBox="0 0 250 71" style="enable-background:new 0 0 250 71;" xml:space="preserve"> <style type="text/css"> .st0{fill:#136EF6;} .st1{fill:#FFFFFF;} </style> <g> <g> <path d="M76.9,27.35c-12.62,0-21.6,9.28-21.6,21.9C55.3,61.87,64.35,71,77.05,71c8.9,0,16.88-4.41,20.15-13.76h-8.9 c-1.98,4.11-6.16,6.24-11.18,6.24c-7,0-12.4-4.26-13.08-11.94h33.99C98.87,37.77,90.36,27.35,76.9,27.35z M64.5,44.54 c1.44-5.63,5.85-9.73,12.4-9.73c6.31,0,10.65,4.03,11.94,9.73H64.5z"></path> <polygon points="141.16,29.17 130.82,29.17 121.85,43.17 112.57,29.17 102.3,29.17 116.45,49.48 101.46,71 111.81,71 121.54,56.02 131.66,71 141.92,71 127.02,49.63 "></polygon> <rect x="149.23" y="12.44" width="8.67" height="58.56"></rect> <path d="M188.32,27.35c-12.62,0-21.6,9.28-21.6,21.9c0,12.62,9.05,21.75,21.75,21.75c8.9,0,16.88-4.41,20.15-13.76h-8.9 c-1.98,4.11-6.16,6.24-11.18,6.24c-7,0-12.4-4.26-13.08-11.94h33.99C210.3,37.77,201.78,27.35,188.32,27.35z M175.92,44.54 c1.44-5.63,5.86-9.73,12.4-9.73c6.31,0,10.65,4.03,11.94,9.73H175.92z"></path> <path d="M248.48,60.96c-3.27,1.14-6.24,2.05-8.9,2.05c-5.4,0-8.21-3.35-8.21-9.43V36.32h17.19v-8.06h-17.19V16.85l-8.59,1.9v9.51 h-7.76v8.06h7.76v17.72c0,11.56,6.69,16.96,15.29,16.96c4.79,0,9.66-1.67,11.94-3.04L248.48,60.96z"></path> <polygon points="36.51,20.96 36.51,39.52 9.21,39.52 9.21,20.96 0.61,17.83 0.61,71 9.21,71 9.21,47.73 36.51,47.73 36.51,71 45.1,71 45.1,17.83 "></polygon> </g> <polygon class="st0" points="45.71,8.56 22.86,0 0,8.56 22.86,16.88 "></polygon> </g> </svg> 
